<svg xmlns="http://www.w3.org/2000/svg"  viewBox="0 0 100 100" width="100px" height="100px"><circle cx="52" cy="52" r="44" opacity=".35"/><circle cx="50" cy="50" r="44" fill="#f2f2f2"/><path fill="#f2f2f2" d="M50,91C27.393,91,9,72.607,9,50S27.393,9,50,9s41,18.393,41,41S72.607,91,50,91z"/><circle cx="50.026" cy="50.026" r="38.026" fill="#d9eeff"/><path fill="#ffc7a3" d="M72.578,75.203c-0.003-0.04-0.01-0.079-0.014-0.118c-0.02-0.201-0.045-0.401-0.079-0.598 c-0.004-0.023-0.009-0.046-0.014-0.07c-0.039-0.216-0.086-0.43-0.142-0.641c-0.001-0.005-0.003-0.01-0.004-0.015 c-0.7-2.646-2.66-4.679-5.325-5.623l-10-3.645v-4.516c0,0,3-2.977,3.204-7.977c0.003,0.005,0.007,0.009,0.01,0.015 c0.576,1.194,2.095,1.399,3.258,0.103c1.311-1.461,2.207-4.707,0.871-6.413c-0.864-1.103-2.389-0.814-2.652,0.171 c0.395-2.074,0.212-3.41,0.212-5.077c0-7.587-5.147-12.172-11.903-12.172s-11.903,4.585-11.903,12.172 c0,1.668-0.245,3.008,0.15,5.082c-0.264-0.986-1.676-1.279-2.54-0.176c-1.336,1.706-0.572,5.029,0.82,6.413 c1.296,1.29,2.665,1.084,3.241-0.11c0.003-0.005,0.006-0.01,0.01-0.015C40,57,43,60,43,60l-0.006,4.469L33,67.974 c-2.666,0.944-4.626,3.14-5.325,5.787c-0.001,0.005-0.003,0.01-0.004,0.015c-0.055,0.211-0.103,0.425-0.142,0.641 c-0.004,0.023-0.01,0.046-0.014,0.07c-0.034,0.197-0.06,0.397-0.079,0.598c-0.004,0.04-0.011,0.078-0.014,0.118 c-0.02,0.235-0.031,0.71-0.031,0.71h45.22v0C72.61,75.674,72.598,75.437,72.578,75.203z"/><path fill="#40396e" d="M60.535,39.323c-1.264,2.893,0.138,6.148,0.138,6.148l1.188-1.103l0.248-5.045 C62.11,39.323,60.797,38.725,60.535,39.323z"/><path fill="#40396e" d="M39.456,39.323c1.264,2.893-0.095,6.068-0.095,6.068l-1.232-1.023l-0.248-5.045 C37.881,39.323,39.195,38.725,39.456,39.323z"/><path fill="#40396e" d="M50,62c4,0,7-2,7-2s-2,5-7,5s-7-5-7-5S46,62,50,62z" opacity=".35"/><path fill="#40396e" d="M61.515,46.004c-0.057,0-0.116-0.005-0.175-0.017c-0.504-0.096-0.835-0.583-0.739-1.087 c0.359-1.885,0.554-2.974,0.554-4.622c0-6.618-4.691-11.421-11.155-11.421c-0.514,0-0.93-0.416-0.93-0.93s0.416-0.93,0.93-0.93 c7.541,0,13.014,5.585,13.014,13.28c0,1.795-0.206,2.973-0.587,4.97C62.342,45.693,61.952,46.004,61.515,46.004z"/><path fill="#40396e" d="M38.485,46.009c-0.438,0-0.827-0.31-0.912-0.756c-0.381-1.997-0.587-3.18-0.587-4.975 c0-7.695,5.473-13.28,13.014-13.28c0.514,0,0.93,0.416,0.93,0.93s-0.416,0.93-0.93,0.93c-6.463,0-11.155,4.803-11.155,11.421 c0,1.647,0.195,2.742,0.554,4.627c0.096,0.504-0.235,0.991-0.739,1.087C38.602,46.004,38.543,46.009,38.485,46.009z"/><path fill="#40396e" d="M37.543,45.097c0,0,1.337-3.975,2.619-4.295c0,0,15.689-0.96,16.944-8.953	c1.352-8.603-9.305-6.982-12.32-6.176C42.144,26.38,32.23,31.809,37.543,45.097z"/><path fill="#40396e" d="M55.816,33.282c0,0-0.222,2.286,4.036,7.517l2.605,4.286c0,0,6.109-14.22-5.914-17.176L55.816,33.282	z"/><path fill="#707cc0" d="M72.578,75.203c-0.003-0.04-0.01-0.079-0.014-0.118c-0.02-0.201-0.045-0.401-0.079-0.598	c-0.004-0.023-0.009-0.046-0.014-0.07c-0.039-0.216-0.086-0.43-0.142-0.641c-0.001-0.005-0.003-0.01-0.004-0.015	c-0.7-2.646-2.66-4.679-5.325-5.623l-7.635-2.659C57.951,69.284,54.297,72,50,72c-4.319,0-7.988-2.743-9.387-6.579L33,67.974	c-2.666,0.944-4.626,3.141-5.326,5.787c-0.001,0.005-0.003,0.01-0.004,0.015c-0.055,0.211-0.103,0.425-0.142,0.641	c-0.004,0.023-0.01,0.046-0.014,0.07c-0.034,0.197-0.06,0.397-0.079,0.598c-0.004,0.04-0.011,0.078-0.014,0.118	C27.402,75.437,27,81,27,81l12,6l11.026,1.053L62,87l11-6l-0.39-5.088C72.61,75.674,72.598,75.437,72.578,75.203z"/><circle cx="50" cy="50" r="37.5" fill="none" stroke="#40396e" stroke-miterlimit="10" stroke-width="3"/></svg>