<svg xmlns="http://www.w3.org/2000/svg"  viewBox="0 0 100 100" width="100px" height="100px"><path d="M19.5,89C13.71,89,9,84.29,9,78.5v-55C9,17.71,13.71,13,19.5,13h21.065 c2.43,0,4.801,0.851,6.676,2.396L52.832,20H84.5C90.29,20,95,24.71,95,30.5v48C95,84.29,90.29,89,84.5,89H19.5z" opacity=".35"/><path fill="#f2f2f2" d="M17.5,87C11.71,87,7,82.29,7,76.5v-55C7,15.71,11.71,11,17.5,11h21.065 c2.43,0,4.801,0.851,6.676,2.396L50.832,18H82.5C88.29,18,93,22.71,93,28.5v48C93,82.29,88.29,87,82.5,87H17.5z"/><path fill="#70bfff" d="M13.5,76.5v-55c0-2.209,1.791-4,4-4h21.065c0.928,0,1.827,0.322,2.543,0.912l6.284,5.175 c0.716,0.59,1.615,0.912,2.543,0.912H82.5c2.209,0,4,1.791,4,4v48c0,2.209-1.791,4-4,4h-14v-1c0-2.209-1.791-4-4-4l0,0 c-2.209,0-4,1.791-4,4v1h-21v-1c0-2.209-1.791-4-4-4l0,0c-2.209,0-4,1.791-4,4v1h-14C15.291,80.5,13.5,78.709,13.5,76.5z"/><path fill="#d9eeff" d="M13.5,33v43.5c0,2.209,1.791,4,4,4h14v-1c0-2.209,1.791-4,4-4s4,1.791,4,4v1h21v-1 c0-2.209,1.791-4,4-4s4,1.791,4,4v1h14c2.209,0,4-1.791,4-4V33H13.5z"/><path fill="#40396e" d="M82.5,82h-14c-0.828,0-1.5-0.672-1.5-1.5v-1c0-1.379-1.121-2.5-2.5-2.5S62,78.121,62,79.5v1 c0,0.828-0.672,1.5-1.5,1.5h-21c-0.828,0-1.5-0.672-1.5-1.5v-1c0-1.379-1.121-2.5-2.5-2.5S33,78.121,33,79.5v1 c0,0.828-0.672,1.5-1.5,1.5h-14c-3.032,0-5.5-2.468-5.5-5.5v-55c0-3.032,2.468-5.5,5.5-5.5h21.065c1.272,0,2.514,0.445,3.496,1.255 l6.284,5.175c0.446,0.368,1.011,0.57,1.59,0.57H82.5c3.032,0,5.5,2.468,5.5,5.5v48C88,79.532,85.532,82,82.5,82z M69.978,79H82.5 c1.379,0,2.5-1.121,2.5-2.5v-48c0-1.379-1.121-2.5-2.5-2.5H49.936c-1.273,0-2.515-0.445-3.497-1.255l-6.284-5.175 c-0.447-0.368-1.011-0.57-1.59-0.57H17.5c-1.379,0-2.5,1.121-2.5,2.5v55c0,1.379,1.121,2.5,2.5,2.5h12.522 c0.253-2.8,2.613-5,5.478-5s5.225,2.2,5.478,5h18.045c0.253-2.8,2.613-5,5.478-5S69.725,76.2,69.978,79z"/><path fill="#707cc0" d="M70.871,42.511L59.502,53.5l11.367,10.988C70.946,64.211,71,63.926,71,63.625V43.374 C71,43.073,70.946,42.789,70.871,42.511z M54.693,53.296l13.659-13.205c-0.288-0.072-0.583-0.125-0.893-0.125H32.542 c-0.311,0-0.606,0.052-0.894,0.125l13.66,13.205C47.896,55.795,52.104,55.795,54.693,53.296z M50,58.61 c-2.514,0-5.016-0.915-6.966-2.709L31.648,66.909c0.288,0.072,0.583,0.125,0.893,0.125h34.916c0.311,0,0.606-0.052,0.894-0.125 L56.966,55.903C55.016,57.696,52.514,58.61,50,58.61z M29.129,42.511C29.054,42.789,29,43.073,29,43.374v20.251 c0,0.301,0.054,0.585,0.129,0.863L40.498,53.5L29.129,42.511z"/></svg>