<svg xmlns="http://www.w3.org/2000/svg" width="64" height="64" fill="none" viewBox="0 0 64 64" id="copy">
  <path fill="#2B3151" fill-rule="evenodd" d="M8 27.9997C8 24.3178 10.9848 21.333 14.6667 21.333H36C39.6819 21.333 42.6667 24.3178 42.6667 27.9997V49.333C42.6667 53.0149 39.6819 55.9997 36 55.9997H14.6667C10.9848 55.9997 8 53.0149 8 49.333V27.9997ZM14.6667 23.9997C12.4575 23.9997 10.6667 25.7905 10.6667 27.9997V49.333C10.6667 51.5421 12.4575 53.333 14.6667 53.333H36C38.2091 53.333 40 51.5421 40 49.333V27.9997C40 25.7905 38.2091 23.9997 36 23.9997H14.6667Z" clip-rule="evenodd"></path>
  <path fill="#2B3151" fill-rule="evenodd" d="M21.3333 14.6667C21.3333 10.9848 24.318 8 27.9999 8H49.3333C53.0151 8 55.9999 10.9848 55.9999 14.6667V36C55.9999 39.6819 53.0152 42.6667 49.3333 42.6667H48.5127C47.7764 42.6667 47.1794 42.0697 47.1794 41.3333C47.1794 40.597 47.7764 40 48.5127 40H49.3333C51.5424 40 53.3333 38.2091 53.3333 36V14.6667C53.3333 12.4575 51.5424 10.6667 49.3333 10.6667H27.9999C25.7908 10.6667 23.9999 12.4575 23.9999 14.6667V15.4872C23.9999 16.2236 23.403 16.8205 22.6666 16.8205C21.9302 16.8205 21.3333 16.2236 21.3333 15.4872V14.6667Z" clip-rule="evenodd"></path>
</svg>
