<svg xmlns="http://www.w3.org/2000/svg" viewBox="0 0 25 25" id="Bright">
  <g fill="#bbbec0" transform="translate(4.5 -1031.862)" class="colorffffff svgShape">
    <circle cx="8" cy="1044.362" r="12.5" fill="#747d7e" class="color1d67b1 svgShape"></circle>
    <path fill="#3a3d3e" d="M14.865 24.766a12.5 12.5 0 0 0 .979-.221 12.5 12.5 0 0 0 1.185-.395 12.5 12.5 0 0 0 1.14-.51 12.5 12.5 0 0 0 1.085-.622 12.5 12.5 0 0 0 1.016-.727 12.5 12.5 0 0 0 .939-.824 12.5 12.5 0 0 0 .852-.914 12.5 12.5 0 0 0 .755-.994 12.5 12.5 0 0 0 .655-1.067 12.5 12.5 0 0 0 .543-1.125 12.5 12.5 0 0 0 .427-1.174 12.5 12.5 0 0 0 .309-1.21 12.5 12.5 0 0 0 .018-.116l-6.963-6.963-.707-.707-1.2 1.201L13 5.5h-1v3l1.057 1.057A2.982 2.982 0 0 0 12.5 9.5c-.646 0-1.242.21-1.732.56l-.743-.742-2.12-2.12-.708.706 2.121 2.121.743.743c-.35.49-.561 1.086-.561 1.732 0 .19.022.376.057.557L8.5 12h-3v1l2.898 2.898-1.2 1.2.706.707 6.961 6.96z" color="#000" font-family="sans-serif" font-weight="400" style="line-height:normal;text-indent:0;text-align:start;text-decoration-line:none;text-decoration-style:solid;text-decoration-color:#000;text-transform:none;block-progression:tb;isolation:auto;mix-blend-mode:normal" transform="translate(-4.5 1031.862)" class="color154082 svgShape"></path>
    <path d="M7.002 1v3h1V1h-1zM2.906 2.697l-.707.707L4.32 5.525l.707-.707-2.12-2.12Zm9.194 0L9.979 4.818l.707.707 2.12-2.12-.706-.708ZM7.502 5c-1.651 0-3 1.35-3 3 0 1.651 1.349 3 3 3 1.65 0 3-1.349 3-3 0-1.65-1.35-3-3-3zm0 1c1.11 0 2 .89 2 2 0 1.11-.89 2-2 2-1.11 0-2-.89-2-2 0-1.11.89-2 2-2zm-7 1.5v1h3v-1h-3zm11 0v1h3v-1h-3zM4.32 10.477l-2.12 2.12.706.708 2.121-2.121-.707-.707Zm6.366 0-.707.707 2.12 2.12.708-.706-2.121-2.121zM7.002 12v3h1v-3h-1z" color="#000" font-family="sans-serif" font-weight="400" overflow="visible" style="line-height:normal;text-indent:0;text-align:start;text-decoration-line:none;text-decoration-style:solid;text-decoration-color:#000;text-transform:none;block-progression:tb;isolation:auto;mix-blend-mode:normal" transform="translate(.498 1036.362)" fill="#000000" class="color000000 svgShape"></path>
  </g>
</svg>
