<svg xmlns="http://www.w3.org/2000/svg" xmlns:xlink="http://www.w3.org/1999/xlink" viewBox="0,0,256,256" width="240px" height="240px" fill-rule="nonzero"><defs><linearGradient x1="13.963" y1="6.616" x2="33.864" y2="41.086" gradientUnits="userSpaceOnUse" id="color-1"><stop offset="0" stop-color="#e0dede"></stop><stop offset="1" stop-color="#3e474e"></stop></linearGradient></defs><g fill="none" fill-rule="nonzero" stroke="none" stroke-width="1" stroke-linecap="butt" stroke-linejoin="miter" stroke-miterlimit="10" stroke-dasharray="" stroke-dashoffset="0" font-family="none" font-weight="none" font-size="none" text-anchor="none" style="mix-blend-mode: normal"><g transform="scale(5.33333,5.33333)"><circle cx="24" cy="24" r="20" fill="url(#color-1)"></circle><path d="M32,32h-16c-1.103,0 -2,-0.897 -2,-2c0,-1.103 0.897,-2 2,-2h16c1.103,0 2,0.897 2,2c0,1.103 -0.897,2 -2,2zM32,26h-16c-1.103,0 -2,-0.897 -2,-2c0,-1.103 0.897,-2 2,-2h16c1.103,0 2,0.897 2,2c0,1.103 -0.897,2 -2,2zM32,20h-16c-1.103,0 -2,-0.897 -2,-2c0,-1.103 0.897,-2 2,-2h16c1.103,0 2,0.897 2,2c0,1.103 -0.897,2 -2,2z" fill="#11110f" opacity="0.05"></path><path d="M32,31.5h-16c-0.827,0 -1.5,-0.673 -1.5,-1.5c0,-0.827 0.673,-1.5 1.5,-1.5h16c0.827,0 1.5,0.673 1.5,1.5c0,0.827 -0.673,1.5 -1.5,1.5zM32,25.5h-16c-0.827,0 -1.5,-0.673 -1.5,-1.5c0,-0.827 0.673,-1.5 1.5,-1.5h16c0.827,0 1.5,0.673 1.5,1.5c0,0.827 -0.673,1.5 -1.5,1.5zM32,19.5h-16c-0.827,0 -1.5,-0.673 -1.5,-1.5c0,-0.827 0.673,-1.5 1.5,-1.5h16c0.827,0 1.5,0.673 1.5,1.5c0,0.827 -0.673,1.5 -1.5,1.5z" fill="#000000" opacity="0.07"></path><path d="M16,29h16c0.552,0 1,0.448 1,1v0c0,0.552 -0.448,1 -1,1h-16c-0.552,0 -1,-0.448 -1,-1v0c0,-0.552 0.448,-1 1,-1zM16,23h16c0.552,0 1,0.448 1,1v0c0,0.552 -0.448,1 -1,1h-16c-0.552,0 -1,-0.448 -1,-1v0c0,-0.552 0.448,-1 1,-1zM16,17h16c0.552,0 1,0.448 1,1v0c0,0.552 -0.448,1 -1,1h-16c-0.552,0 -1,-0.448 -1,-1v0c0,-0.552 0.448,-1 1,-1z" fill="#0b0b0b"></path></g></g></svg>