<svg xmlns="http://www.w3.org/2000/svg"  viewBox="0 0 100 100" width="100px" height="100px" baseProfile="basic"><path d="M95.714,30.851L55.218,7.815C54.239,7.257,53.127,6.962,52,6.962s-2.239,0.295-3.214,0.851	L8.291,30.848C6.261,32,5,34.166,5,36.5v8c0,2.267,1.15,4.333,3.089,5.534C9.115,50.666,10.294,51,11.499,51	c0.504,0,1.009-0.061,1.501-0.177v18.195c-1.803,1.157-3,3.179-3,5.476v9c0,3.584,2.916,6.5,6.5,6.5h1.012	c2.577,3.691,6.844,6,11.488,6c2.925,0,40.5,0,40.5,0c3.416,0,6.225-2.648,6.481-6H87.5c3.584,0,6.5-2.916,6.5-6.5v-9	c0-2.297-1.197-4.318-3-5.476V50.825C91.491,50.941,91.996,51,92.5,51c1.206,0,2.387-0.335,3.422-0.974	C97.85,48.833,99,46.767,99,44.5v-8C99,34.166,97.739,32,95.714,30.851z" opacity=".35"/><path fill="#f2f2f2" d="M93.714,28.851L53.218,5.815C52.239,5.257,51.127,4.962,50,4.962s-2.239,0.295-3.214,0.851	L6.291,28.848C4.261,30,3,32.166,3,34.5v8c0,2.267,1.15,4.333,3.089,5.534C7.115,48.666,8.294,49,9.499,49	c0.504,0,1.009-0.061,1.501-0.177v18.195c-1.803,1.157-3,3.179-3,5.476v9c0,3.584,2.916,6.5,6.5,6.5h1.012	c2.577,3.691,6.844,6,11.488,6c2.925,0,40.5,0,40.5,0c3.416,0,6.225-2.648,6.481-6H85.5c3.584,0,6.5-2.916,6.5-6.5v-9	c0-2.297-1.197-4.318-3-5.476V48.825C89.491,48.941,89.996,49,90.5,49c1.206,0,2.387-0.335,3.422-0.974	C95.85,46.833,97,44.767,97,42.5v-8C97,32.166,95.739,30,93.714,28.851z"/><circle cx="43" cy="79.995" r="7.5" fill="#707cc0"/><circle cx="43" cy="79.995" r="3" fill="#40396e"/><circle cx="27" cy="79.995" r="7.5" fill="#707cc0"/><circle cx="27" cy="79.995" r="3" fill="#40396e"/><polygon fill="#d9eeff" points="90.5,34.5 50,11.462 9.5,34.5 9.5,42.5 17.5,38.5 17.5,75.495 82.5,75.495 82.5,38.5 90.5,42.5"/><rect width="71" height="6" x="14.5" y="73.995" fill="#9ba7c5"/><polygon fill="#ff7575" points="9.5,34.5 10,40.981 17.006,37.087 50,18.981 82.985,37.078 90,40.981 90.5,34.5 50,11.462"/><polygon fill="#40396e" points="16,41 17.044,37.069 50,19 82.985,37.078 84,41 50,22.506" opacity=".35"/><rect width="20" height="11" x="26" y="42.995" fill="#70bfff"/><rect width="21" height="31" x="53" y="42.995" fill="#ff7575"/><circle cx="68.5" cy="59.495" r="2.5" fill="#40396e"/><path fill="#40396e" d="M43,88.995c-3.421,0-6.485-1.95-8-4.877c-1.515,2.927-4.579,4.877-8,4.877	c-3.842,0-7.233-2.46-8.487-6H14.5c-0.828,0-1.5-0.672-1.5-1.5v-9c0-0.828,0.672-1.5,1.5-1.5H16V40.927l-5.829,2.915	c-0.466,0.231-1.018,0.207-1.46-0.065C8.27,43.503,8,43.02,8,42.5v-8c0-0.539,0.289-1.037,0.759-1.304l40.5-23.038	c0.459-0.262,1.023-0.262,1.482,0l40.5,23.038C91.711,33.463,92,33.961,92,34.5v8c0,0.52-0.27,1.003-0.711,1.276	c-0.443,0.273-0.995,0.298-1.46,0.065L84,40.927v30.067h1.5c0.828,0,1.5,0.672,1.5,1.5v9c0,0.828-0.672,1.5-1.5,1.5H51.487	C50.233,86.535,46.842,88.995,43,88.995z M34.35,79.995h1.301c0.713,0,1.328,0.502,1.47,1.201c0.564,2.78,3.038,4.799,5.88,4.799	s5.315-2.019,5.88-4.799c0.142-0.699,0.757-1.201,1.47-1.201H84v-6h-1.5c-0.828,0-1.5-0.672-1.5-1.5V38.5	c0-0.52,0.27-1.003,0.711-1.276c0.443-0.272,0.994-0.297,1.46-0.065L89,40.074v-4.701L50,13.188L11,35.373v4.701l5.829-2.915	c0.465-0.231,1.017-0.207,1.46,0.065C18.73,37.498,19,37.981,19,38.5v33.994c0,0.828-0.672,1.5-1.5,1.5H16v6h3.65	c0.713,0,1.328,0.502,1.47,1.201c0.564,2.78,3.038,4.799,5.88,4.799s5.315-2.019,5.88-4.799	C33.021,80.497,33.637,79.995,34.35,79.995z"/><path fill="#40396e" d="M59.5,88.995c-0.828,0-1.5-0.672-1.5-1.5v-6c0-0.828,0.672-1.5,1.5-1.5s1.5,0.672,1.5,1.5v6	C61,88.323,60.328,88.995,59.5,88.995z"/><path fill="#40396e" d="M67.5,88.995c-0.828,0-1.5-0.672-1.5-1.5v-6c0-0.828,0.672-1.5,1.5-1.5s1.5,0.672,1.5,1.5v6	C69,88.323,68.328,88.995,67.5,88.995z"/><path fill="#40396e" d="M67.5,88.995h-8c-0.828,0-1.5-0.672-1.5-1.5s0.672-1.5,1.5-1.5h8c0.828,0,1.5,0.672,1.5,1.5	S68.328,88.995,67.5,88.995z"/><rect width="30" height="3" x="19.5" y="79.995" fill="#40396e" opacity=".35"/></svg>