<svg xmlns="http://www.w3.org/2000/svg"  viewBox="0 0 100 100" width="100px" height="100px" baseProfile="basic"><path d="M26.5,97C20.7099991,97,16,92.2900009,16,86.5v-65C16,15.71,20.7099991,11,26.5,11h13.9669991 C42.6529999,6.8119998,47.0410004,4,52,4s6.8139992,2.8120003,9,7h16.5C83.2900009,11,88,15.71,88,21.5v65 C88,92.2900009,83.2900009,97,77.5,97H26.5z" opacity=".35"/><path fill="#F2F2F2" d="M24.5,95C18.7099991,95,14,90.2900009,14,84.5v-65C14,13.71,18.7099991,9,24.5,9h13.9669991 C40.6529999,4.8119998,45.0410004,2,50,2s9.3470001,2.8120003,11.5330009,7H75.5C81.2900009,9,86,13.71,86,19.5v65 C86,90.2900009,81.2900009,95,75.5,95H24.5z"/><path fill="#707CC0" d="M75.5,15.5H56.4749985C56.487999,15.3339996,56.5,15.1689997,56.5,15c0-3.5900002-2.9099998-6.5-6.5-6.5 s-6.5,2.9099998-6.5,6.5c0,0.1689997,0.0130005,0.3339996,0.0250015,0.5H24.5c-2.2089996,0-4,1.7910004-4,4v65 c0,2.2089996,1.7910004,4,4,4h51c2.2089996,0,4-1.7910004,4-4v-65C79.5,17.2910004,77.7089996,15.5,75.5,15.5z"/><path fill="#D9EEFF" d="M72,83H28c-1.1049995,0-2-0.8949966-2-2V23c0-1.1049995,0.8950005-2,2-2h44c1.1050034,0,2,0.8950005,2,2v58 C74,82.1050034,73.1050034,83,72,83z"/><circle cx="50" cy="15" r="5" fill="#70BFFF"/><path fill="#70BFFF" d="M61,25H39c-2.2089996,0-4-1.7910004-4-4v-5h30v5C65,23.2089996,63.2089996,25,61,25z"/><path fill="#40396E" d="M75.5,90h-51c-3.0319996,0-5.5-2.4680023-5.5-5.5v-65c0-3.0319996,2.4680004-5.5,5.5-5.5h17.5620003 C42.5550003,10.0599995,45.927002,7,50,7s7.4440002,3.0599995,7.9379997,7H75.5c3.0319977,0,5.5,2.4680004,5.5,5.5v65 C81,87.5319977,78.5319977,90,75.5,90z M24.5,17c-1.3789997,0-2.5,1.1210003-2.5,2.5v65c0,1.3789978,1.1210003,2.5,2.5,2.5h51 c1.3789978,0,2.5-1.1210022,2.5-2.5v-65c0-1.3789997-1.1210022-2.5-2.5-2.5H56.4749985 c-0.4179993,0-0.8160019-0.1739998-1.1010017-0.4799995c-0.2830009-0.3069992-0.4269981-0.7180004-0.3959999-1.1339998 C54.9889984,15.2559996,55,15.1289997,55,15c0-2.757-2.243-5-5-5s-5,2.243-5,5 c0,0.1289997,0.0110016,0.2559996,0.0209999,0.3830004c0.0320015,0.4160004-0.1110001,0.8289995-0.3950005,1.1349993 S43.9430008,17,43.5250015,17H24.5z"/><circle cx="50" cy="15" r="2" fill="#40396E"/><path fill="#70BFFF" d="M49.5,46h-16c-0.8279991,0-1.5-0.6720009-1.5-1.5l0,0c0-0.8279991,0.6720009-1.5,1.5-1.5h16 c0.8280029,0,1.5,0.6720009,1.5,1.5l0,0C51,45.3279991,50.3280029,46,49.5,46z"/><path fill="#70BFFF" d="M50.25,64H33.5c-0.8279991,0-1.5-0.6720009-1.5-1.5l0,0c0-0.8279991,0.6720009-1.5,1.5-1.5h16.75 c0.8280029,0,1.5,0.6720009,1.5,1.5l0,0C51.75,63.3279991,51.0780029,64,50.25,64z"/><path fill="#96C362" d="M68.0019531,39.2104492c-0.4960938-0.4960938-1.3027344-0.4960938-1.7988281,0l-5.7265625,5.7260742 l-1.777832-1.7739258c-0.2402344-0.2402344-0.5595703-0.3725586-0.8989258-0.3725586c-0.0004883,0-0.0009766,0-0.0009766,0 c-0.340332,0.0004883-0.659668,0.1333008-0.8994141,0.3735352c-0.2402344,0.2407227-0.3725586,0.5600586-0.3720703,0.9003906 c0.0004883,0.3398438,0.1333008,0.6591797,0.3735352,0.8994141l2.6777344,2.6723633 c0.2397461,0.2397461,0.559082,0.3720703,0.8989258,0.3720703c0.3393555,0,0.6586914-0.1323242,0.8994141-0.3730469 l6.6245117-6.6245117C68.2421875,40.7700195,68.375,40.4506836,68.375,40.1108398 C68.375,39.7705078,68.2426758,39.4506836,68.0019531,39.2104492z"/><path fill="#96C362" d="M68.0019531,56.5776367c-0.4960938-0.4960938-1.3027344-0.4960938-1.7988281,0l-5.7265625,5.7260742 l-1.777832-1.7739258c-0.2402344-0.2402344-0.5595703-0.3725586-0.8989258-0.3725586c-0.0004883,0-0.0009766,0-0.0009766,0 c-0.340332,0.0004883-0.659668,0.1333008-0.8994141,0.3735352c-0.2402344,0.2407227-0.3725586,0.5600586-0.3720703,0.9003906 c0.0004883,0.3398438,0.1333008,0.6591797,0.3735352,0.8994141l2.6777344,2.6723633 C59.8183594,65.2426758,60.1376953,65.375,60.4775391,65.375c0.3393555,0,0.6586914-0.1323242,0.8994141-0.3730469 l6.6245117-6.6245117C68.2421875,58.137207,68.375,57.8178711,68.375,57.4780273 C68.375,57.1376953,68.2426758,56.8178711,68.0019531,56.5776367z"/></svg>